{"title":"The Look of Love 2013 BRRip 480p x264 AAC - VYTO [P2PDL]","uid":8838202,"size":339849636,"categoryP":"video","categoryS":"movies","magnet":"?xt=urn:btih:d4b9d329bfd1127a3e4ee977f961763d778e64f3&amp;dn=The+Look+of+Love+2013+BRRip+480p+x264+AAC+-+VYTO+%5BP2PDL%5D&amp;tr=udp%3A%2F%2Ftracker.openbittorrent.com%3A80&amp;tr=udp%3A%2F%2Fopen.demonii.com%3A1337&amp;tr=udp%3A%2F%2Ftracker.coppersurfer.tk%3A6969&amp;tr=udp%3A%2F%2Fexodus.desync.com%3A6969","seeders":2,"leechers":0,"uploader":"ValidusVyto","files":-1,"time":1377180916,"description":"_______ Visit us at our Semi Public Bittorrent Community ________\n  &lt;a href=&quot;\nhttp://p2pdl.com&quot; rel=&quot;nofollow&quot; target=&quot;_NEW&quot;&gt;\nhttp://p2pdl.com&lt;/a&gt;  _____________________________ &lt;a href=&quot; http://p2pdl.com&quot; rel=&quot;nofollow&quot; target=&quot;_NEW&quot;&gt; http://p2pdl.com&lt;/a&gt;\n\n                         \nThe Look of Love 2013 BRRip 480p x264 AAC - VYTO\n\n\nGenre: Biography | Comedy | Drama\nPlot: The life of Paul Raymond, the controversial entrepreneur who became Britain's\nrichest man.    \nDirector: Michael Winterbottom\nStars: Steve Coogan, Matt Lucas, Anna Friel.\nRated: N/a\n\nIMDb: &lt;a href=&quot;\nhttp://www.imdb.com/title/tt1951216/&quot; rel=&quot;nofollow&quot; target=&quot;_NEW&quot;&gt;\nhttp://www.imdb.com/title/tt1951216/&lt;/a&gt;\n\nTrailer:\n\n\nFormat                         : MPEG-4\nFile size                      : 319 MiB\nDuration                       : 1h 41mn\nOverall bit rate mode          : Variable\nOverall bit rate               : 442 Kbps\n\nVideo\nFormat                         : AVC\nBit rate                       : 399 Kbps\nWidth                          : 720 pixels\nHeight                         : 304 pixels\nDisplay aspect ratio           : 2.35:1\nFrame rate mode                : Constant\nFrame rate                     : 24.000 fps\nBit depth                      : 10 bits\nStream size                    : 288 MiB (90%)\nWriting library                : x264 core 133 r2334\n\nAudio\nFormat                         : AAC\nBit rate mode                  : Variable\nBit rate                       : 40.0 Kbps\nChannel(s)                     : 2 channels\nChannel positions              : Front: L R\nSampling rate                  : 48.0 KHz\nStream size                    : 28.9 MiB (9%)\n\nSubtitle\t\t       : Yes(English)\n\nSource                         : LIMITED.720p.BluRay.X264-TRiPS\n &lt;a href=&quot;\nhttp://ultraimg.com/images/lJWeM.png&quot; rel=&quot;nofollow&quot; target=&quot;_NEW&quot;&gt;\nhttp://ultraimg.com/images/lJWeM.png&lt;/a&gt; &lt;a href=&quot;\nhttp://ultraimg.com/images/of2ha.png&quot; rel=&quot;nofollow&quot; target=&quot;_NEW&quot;&gt;\nhttp://ultraimg.com/images/of2ha.png&lt;/a&gt; &lt;a href=&quot;\nhttp://ultraimg.com/images/ecERh.png&quot; rel=&quot;nofollow&quot; target=&quot;_NEW&quot;&gt;\nhttp://ultraimg.com/images/ecERh.png&lt;/a&gt; &lt;a href=&quot;\nhttp://ultraimg.com/images/ZA8QV.png&quot; rel=&quot;nofollow&quot; target=&quot;_NEW&quot;&gt;\nhttp://ultraimg.com/images/ZA8QV.png&lt;/a&gt; &lt;a href=&quot;\nhttp://ultraimg.com/images/y3s0x.png&quot; rel=&quot;nofollow&quot; target=&quot;_NEW&quot;&gt;\nhttp://ultraimg.com/images/y3s0x.png&lt;/a&gt; &lt;a href=&quot;\nhttp://ultraimg.com/images/WBNbn.png&quot; rel=&quot;nofollow&quot; target=&quot;_NEW&quot;&gt;\nhttp://ultraimg.com/images/WBNbn.png&lt;/a&gt; &lt;a href=&quot;\nhttp://ultraimg.com/images/kux7P.png&quot; rel=&quot;nofollow&quot; target=&quot;_NEW&quot;&gt;\nhttp://ultraimg.com/images/kux7P.png&lt;/a&gt; &lt;a href=&quot;\nhttp://ultraimg.com/images/mLvry.png&quot; rel=&quot;nofollow&quot; target=&quot;_NEW&quot;&gt;\nhttp://ultraimg.com/images/mLvry.png&lt;/a&gt;\n\n----------------------------------------------------------------------------------------------------\n\n\nEncoded using revolutionary 10bit encoding, which enables us to provide you more crispier \nand sharper images at small sizes, just make sure you follow our instructions without a fault.\nRecommend to you to use latest version of VLC player. Install K-Lite Codec Pack or shark007 codecs\nin case of any kind of problem in playback (For non-VLC Media Player users). Alternatively, install\nCore AVC codecs, the fastest decoder that there is coupled with Community Center Codec Pack and play\non Windows Media Player Classic. Check sample to be sure.\nEnjoy!\n\nEncoder Notes:Looking For Early Access To Anything You Can Provide DVDScr, R5, DVDR, BluRay, Direct\nAudio, Music Releases and Seedboxes. We require dedicated servers, so as to do more \nand fast releases of movies.\nIf You Got anything to offer please contact us at &quot;&lt;a class=&quot;__cf_email__&quot; href=&quot;/cdn-cgi/l/email-protection&quot; data-cfemail=&quot;81f1f3e6c1e9f4f2e9afe2eeec&quot;&gt;[email&amp;#160;protected]&lt;/a&gt;&lt;script cf-hash='f9e31' type=&quot;text/javascript&quot;&gt;\n/* &lt;![CDATA[ */!function(){try{var t=&quot;currentScript&quot;in document?document.currentScript:function(){for(var t=document.getElementsByTagName(&quot;script&quot;),e=t.length;e--;)if(t[e].getAttribute(&quot;cf-hash&quot;))return t[e]}();if(t&amp;&amp;t.previousSibling){var e,r,n,i,c=t.previousSibling,a=c.getAttribute(&quot;data-cfemail&quot;);if(a){for(e=&quot;&quot;,r=parseInt(a.substr(0,2),16),n=2;a.length-n;n+=2)i=parseInt(a.substr(n,2),16)^r,e+=String.fromCharCode(i);e=document.createTextNode(e),c.parentNode.replaceChild(e,c)}}}catch(u){}}();/* ]]&gt; */&lt;/script&gt;&quot;.\n\nFace book Fan Page:  \nSearch P2PDL on FB and hit like!!!\n\nFor more of our team uploads visit @              &lt;a href=&quot;\nhttp://thepiratebay.se/user/vitamin_x&quot; rel=&quot;nofollow&quot; target=&quot;_NEW&quot;&gt;\nhttp://thepiratebay.se/user/vitamin_x&lt;/a&gt;\t","torrent":{"xt":"urn:btih:d4b9d329bfd1127a3e4ee977f961763d778e64f3","amp;dn":"The+Look+of+Love+2013+BRRip+480p+x264+AAC+-+VYTO+%5BP2PDL%5D","amp;tr":["udp%3A%2F%2Ftracker.openbittorrent.com%3A80","udp%3A%2F%2Fopen.demonii.com%3A1337","udp%3A%2F%2Ftracker.coppersurfer.tk%3A6969","udp%3A%2F%2Fexodus.desync.com%3A6969"],"infoHash":"d4b9d329bfd1127a3e4ee977f961763d778e64f3","infoHashBuffer":{"type":"Buffer","data":[212,185,211,41,191,209,18,122,62,78,233,119,249,97,118,61,119,142,100,243]},"announce":[],"urlList":[]}}